<mxfile host="65bd71144e">
    <diagram id="7INRROgWrp3t8TxP5r5U" name="Page-1">
        <mxGraphModel dx="932" dy="495" grid="0" gridSize="10" guides="1" tooltips="0" connect="1" arrows="1" fold="1" page="0" pageScale="1" pageWidth="850" pageHeight="1100" math="0" shadow="0">
            <root>
                <mxCell id="0"/>
                <mxCell id="1" parent="0"/>
                <mxCell id="55" style="edgeStyle=none;html=1;" parent="1" source="6" target="53" edge="1">
                    <mxGeometry relative="1" as="geometry"/>
                </mxCell>
                <mxCell id="6" value="«interface»&#10;ICommand" style="swimlane;fontStyle=0;childLayout=stackLayout;horizontal=1;startSize=40;fillColor=none;horizontalStack=0;resizeParent=1;resizeParentMax=0;resizeLast=0;collapsible=1;marginBottom=0;" parent="1" vertex="1">
                    <mxGeometry x="507.5" y="446" width="155" height="118" as="geometry"/>
                </mxCell>
                <mxCell id="10" value="+ execute():void" style="text;strokeColor=none;fillColor=none;align=left;verticalAlign=top;spacingLeft=4;spacingRight=4;overflow=hidden;rotatable=0;points=[[0,0.5],[1,0.5]];portConstraint=eastwest;" parent="6" vertex="1">
                    <mxGeometry y="40" width="155" height="26" as="geometry"/>
                </mxCell>
                <mxCell id="62" value="+ undo(): void" style="text;strokeColor=none;fillColor=none;align=left;verticalAlign=top;spacingLeft=4;spacingRight=4;overflow=hidden;rotatable=0;points=[[0,0.5],[1,0.5]];portConstraint=eastwest;" parent="6" vertex="1">
                    <mxGeometry y="66" width="155" height="26" as="geometry"/>
                </mxCell>
                <mxCell id="12" value="+ check_excutable(): bool" style="text;strokeColor=none;fillColor=none;align=left;verticalAlign=top;spacingLeft=4;spacingRight=4;overflow=hidden;rotatable=0;points=[[0,0.5],[1,0.5]];portConstraint=eastwest;" parent="6" vertex="1">
                    <mxGeometry y="92" width="155" height="26" as="geometry"/>
                </mxCell>
                <mxCell id="14" value="«interface»&#10;IGetBoardService" style="swimlane;fontStyle=0;childLayout=stackLayout;horizontal=1;startSize=40;fillColor=none;horizontalStack=0;resizeParent=1;resizeParentMax=0;resizeLast=0;collapsible=1;marginBottom=0;" parent="1" vertex="1">
                    <mxGeometry x="512.5" y="209" width="145" height="92" as="geometry"/>
                </mxCell>
                <mxCell id="15" value="+ get_all():PlayerType[][]" style="text;strokeColor=none;fillColor=none;align=left;verticalAlign=top;spacingLeft=4;spacingRight=4;overflow=hidden;rotatable=0;points=[[0,0.5],[1,0.5]];portConstraint=eastwest;" parent="14" vertex="1">
                    <mxGeometry y="40" width="145" height="26" as="geometry"/>
                </mxCell>
                <mxCell id="61" value="+ get_size():int" style="text;strokeColor=none;fillColor=none;align=left;verticalAlign=top;spacingLeft=4;spacingRight=4;overflow=hidden;rotatable=0;points=[[0,0.5],[1,0.5]];portConstraint=eastwest;" parent="14" vertex="1">
                    <mxGeometry y="66" width="145" height="26" as="geometry"/>
                </mxCell>
                <mxCell id="64" style="edgeStyle=none;html=1;" parent="1" source="17" target="6" edge="1">
                    <mxGeometry relative="1" as="geometry"/>
                </mxCell>
                <mxCell id="17" value="«interface»&#10;IProcessCommandService" style="swimlane;fontStyle=0;childLayout=stackLayout;horizontal=1;startSize=40;fillColor=none;horizontalStack=0;resizeParent=1;resizeParentMax=0;resizeLast=0;collapsible=1;marginBottom=0;" parent="1" vertex="1">
                    <mxGeometry x="465" y="610" width="240" height="66" as="geometry"/>
                </mxCell>
                <mxCell id="18" value="+ process(ICommand cmd):bool" style="text;strokeColor=none;fillColor=none;align=left;verticalAlign=top;spacingLeft=4;spacingRight=4;overflow=hidden;rotatable=0;points=[[0,0.5],[1,0.5]];portConstraint=eastwest;" parent="17" vertex="1">
                    <mxGeometry y="40" width="240" height="26" as="geometry"/>
                </mxCell>
                <mxCell id="25" value="«interface»&lt;br&gt;&lt;b&gt;IGetableBoard&lt;/b&gt;" style="html=1;" parent="1" vertex="1">
                    <mxGeometry x="210" y="230" width="110" height="50" as="geometry"/>
                </mxCell>
                <mxCell id="30" value="Use" style="endArrow=open;endSize=12;dashed=1;html=1;" parent="1" source="6" target="40" edge="1">
                    <mxGeometry width="160" relative="1" as="geometry">
                        <mxPoint x="435" y="590" as="sourcePoint"/>
                        <mxPoint x="320" y="465" as="targetPoint"/>
                    </mxGeometry>
                </mxCell>
                <mxCell id="31" value="«interface»&#10;IDistinctEndGameService" style="swimlane;fontStyle=0;childLayout=stackLayout;horizontal=1;startSize=40;fillColor=none;horizontalStack=0;resizeParent=1;resizeParentMax=0;resizeLast=0;collapsible=1;marginBottom=0;" parent="1" vertex="1">
                    <mxGeometry x="475" y="717" width="220" height="92" as="geometry"/>
                </mxCell>
                <mxCell id="65" value="+ check_end():boolean" style="text;strokeColor=none;fillColor=none;align=left;verticalAlign=top;spacingLeft=4;spacingRight=4;overflow=hidden;rotatable=0;points=[[0,0.5],[1,0.5]];portConstraint=eastwest;" parent="31" vertex="1">
                    <mxGeometry y="40" width="220" height="26" as="geometry"/>
                </mxCell>
                <mxCell id="32" value="get_winner():PlayerType" style="text;strokeColor=none;fillColor=none;align=left;verticalAlign=top;spacingLeft=4;spacingRight=4;overflow=hidden;rotatable=0;points=[[0,0.5],[1,0.5]];portConstraint=eastwest;" parent="31" vertex="1">
                    <mxGeometry y="66" width="220" height="26" as="geometry"/>
                </mxCell>
                <mxCell id="38" value="Use" style="endArrow=open;endSize=12;dashed=1;html=1;" parent="1" source="31" target="53" edge="1">
                    <mxGeometry width="160" relative="1" as="geometry">
                        <mxPoint x="525" y="985" as="sourcePoint"/>
                        <mxPoint x="330" y="763" as="targetPoint"/>
                    </mxGeometry>
                </mxCell>
                <mxCell id="39" value="Use" style="endArrow=open;endSize=12;dashed=1;html=1;" parent="1" source="14" target="25" edge="1">
                    <mxGeometry width="160" relative="1" as="geometry">
                        <mxPoint x="535" y="485" as="sourcePoint"/>
                        <mxPoint x="340" y="485" as="targetPoint"/>
                    </mxGeometry>
                </mxCell>
                <mxCell id="40" value="«interface»&lt;br&gt;&lt;b&gt;ISetableBoard&lt;/b&gt;" style="html=1;" parent="1" vertex="1">
                    <mxGeometry x="210" y="430" width="110" height="50" as="geometry"/>
                </mxCell>
                <mxCell id="54" style="edgeStyle=none;html=1;" parent="1" source="41" target="53" edge="1">
                    <mxGeometry relative="1" as="geometry"/>
                </mxCell>
                <mxCell id="41" value="«interface»&lt;br&gt;&lt;b&gt;IDistinctBoard&lt;/b&gt;" style="html=1;" parent="1" vertex="1">
                    <mxGeometry x="210" y="530" width="110" height="50" as="geometry"/>
                </mxCell>
                <mxCell id="43" value="Use" style="endArrow=open;endSize=12;dashed=1;html=1;" parent="1" source="6" target="41" edge="1">
                    <mxGeometry width="160" relative="1" as="geometry">
                        <mxPoint x="525" y="472.8125" as="sourcePoint"/>
                        <mxPoint x="330" y="466.71875" as="targetPoint"/>
                    </mxGeometry>
                </mxCell>
                <mxCell id="46" value="«interface»&lt;br&gt;&lt;b&gt;ISquareBoard&lt;/b&gt;" style="html=1;" parent="1" vertex="1">
                    <mxGeometry x="210" y="480" width="110" height="50" as="geometry"/>
                </mxCell>
                <mxCell id="47" value="Use" style="endArrow=open;endSize=12;dashed=1;html=1;" parent="1" source="6" target="46" edge="1">
                    <mxGeometry width="160" relative="1" as="geometry">
                        <mxPoint x="525" y="515" as="sourcePoint"/>
                        <mxPoint x="330" y="515" as="targetPoint"/>
                    </mxGeometry>
                </mxCell>
                <mxCell id="49" value="«interface»&#10;IUndoCommadOnBoard" style="swimlane;fontStyle=0;childLayout=stackLayout;horizontal=1;startSize=40;fillColor=none;horizontalStack=0;resizeParent=1;resizeParentMax=0;resizeLast=0;collapsible=1;marginBottom=0;" parent="1" vertex="1">
                    <mxGeometry x="722.5" y="459" width="240" height="92" as="geometry"/>
                </mxCell>
                <mxCell id="51" value="+ check_undoable():boolean" style="text;strokeColor=none;fillColor=none;align=left;verticalAlign=top;spacingLeft=4;spacingRight=4;overflow=hidden;rotatable=0;points=[[0,0.5],[1,0.5]];portConstraint=eastwest;" parent="49" vertex="1">
                    <mxGeometry y="40" width="240" height="26" as="geometry"/>
                </mxCell>
                <mxCell id="66" value="+ undo():void" style="text;strokeColor=none;fillColor=none;align=left;verticalAlign=top;spacingLeft=4;spacingRight=4;overflow=hidden;rotatable=0;points=[[0,0.5],[1,0.5]];portConstraint=eastwest;" parent="49" vertex="1">
                    <mxGeometry y="66" width="240" height="26" as="geometry"/>
                </mxCell>
                <mxCell id="52" value="Use" style="endArrow=open;endSize=12;dashed=1;html=1;" parent="1" source="49" target="6" edge="1">
                    <mxGeometry width="160" relative="1" as="geometry">
                        <mxPoint x="595" y="620" as="sourcePoint"/>
                        <mxPoint x="595" y="561" as="targetPoint"/>
                    </mxGeometry>
                </mxCell>
                <mxCell id="53" value="Rules" style="html=1;" parent="1" vertex="1">
                    <mxGeometry x="210" y="618" width="110" height="50" as="geometry"/>
                </mxCell>
                <mxCell id="58" value="«interface»&#10;ICheckSetableRuleService" style="swimlane;fontStyle=0;childLayout=stackLayout;horizontal=1;startSize=40;fillColor=none;horizontalStack=0;resizeParent=1;resizeParentMax=0;resizeLast=0;collapsible=1;marginBottom=0;" parent="1" vertex="1">
                    <mxGeometry x="447.5" y="338" width="275" height="66" as="geometry"/>
                </mxCell>
                <mxCell id="59" value="+ check_setable_point(y, x, PlayerType):boolean " style="text;strokeColor=none;fillColor=none;align=left;verticalAlign=top;spacingLeft=4;spacingRight=4;overflow=hidden;rotatable=0;points=[[0,0.5],[1,0.5]];portConstraint=eastwest;" parent="58" vertex="1">
                    <mxGeometry y="40" width="275" height="26" as="geometry"/>
                </mxCell>
                <mxCell id="60" value="Use" style="endArrow=open;endSize=12;dashed=1;html=1;" parent="1" source="58" target="40" edge="1">
                    <mxGeometry width="160" relative="1" as="geometry">
                        <mxPoint x="485" y="373" as="sourcePoint"/>
                        <mxPoint x="330" y="373" as="targetPoint"/>
                    </mxGeometry>
                </mxCell>
            </root>
        </mxGraphModel>
    </diagram>
</mxfile>